<?xml version="1.0" encoding="UTF-8"?>
<!DOCTYPE svg PUBLIC "-//W3C//DTD SVG 1.1//EN" "http://www.w3.org/Graphics/SVG/1.1/DTD/svg11.dtd">
<!-- Creator: CorelDRAW 2021 (64-Bit) -->
<svg xmlns="http://www.w3.org/2000/svg" xml:space="preserve" width="210mm" height="297mm" version="1.1" style="shape-rendering:geometricPrecision; text-rendering:geometricPrecision; image-rendering:optimizeQuality; fill-rule:evenodd; clip-rule:evenodd"
viewBox="0 0 21000 29700"
 xmlns:xlink="http://www.w3.org/1999/xlink"
 xmlns:xodm="http://www.corel.com/coreldraw/odm/2003">
 <defs>
  <style type="text/css">
   <![CDATA[
    .fil0 {fill:black;fill-rule:nonzero}
   ]]>
  </style>
 </defs>
 <g id="Layer_x0020_1">
  <metadata id="CorelCorpID_0Corel-Layer"/>
  <g id="_2478111936208">
   <g>
    <path class="fil0" d="M17341.19 23207.74c-1441.67,1317.83 -3115.98,2127.37 -5040.17,2363.28 -3200.45,392.34 -5942.74,-571.28 -8146.87,-2932.05 -1295.32,-1387.4 -2056.17,-3053 -2294.87,-4947.29 -172.92,-1372.19 -40.51,-2713.43 399.64,-4022.55 62.16,-184.91 49.17,-339.25 -20.12,-515.22 -390.88,-992.6 -879.03,-1942.81 -1271.48,-2934.44 -210.54,-531.98 -401.62,-1069.5 -472.28,-1642.32 -28.71,-232.82 -19.29,-463 38.87,-688.15 128.95,-499.26 520.69,-792.92 1041.03,-815.11 592.59,-25.27 1162.27,86.6 1724.24,256.06 984.52,296.84 1909.09,723.86 2762.14,1298.72 138.52,93.34 240.12,91.69 381.1,10.93 1060.89,-607.74 2203.36,-981.93 3414.52,-1129.8 1462.46,-178.56 2895.48,-28.77 4286.3,465.11 169.19,60.08 254.65,28.58 368.99,-106.42 652.75,-770.7 1467.36,-1340.72 2340.63,-1831.03 697.17,-391.42 1421.35,-720.06 2214.28,-867.79 175.98,-32.78 355.62,-61.49 535.73,-44.98 625.15,57.33 988.95,429.71 1068.84,1063.65 85.67,679.84 -66.24,1330.47 -245.88,1972.25 -281.94,1007.11 -595.72,2005.29 -891.62,3008.54 -94.4,319.97 -170,645.45 -264.15,965.5 -37.3,126.77 -23.3,234.53 33.73,351.02 445.71,910.5 761.41,1862.89 888.9,2871.11 91.19,721.21 105.54,1442.79 24.82,2169.34 -122.73,1104.51 -433.36,2148.19 -939.61,3134.5 -125.94,245.37 -272.62,480.16 -412.07,718.47 -31.47,53.78 -55.35,118.16 -140.64,140.18 -343.31,-373.38 -659.5,-773.03 -914.06,-1220.7 -504.56,-887.31 -758.7,-1841.72 -702.16,-2859.73 83.41,-1502.21 724.58,-2750.13 1811.17,-3777.74 102.64,-97.08 208.18,-191.4 316.3,-282.33 83.07,-69.87 87.36,-134.38 -4.27,-212.58 -155.54,48.26 -259.67,177.35 -373.86,282.21 -933.23,857.01 -1588.59,1885.81 -1844.71,3136.29 -329.22,1607.38 36.8,3068.39 993.65,4389.66 158.36,218.66 322.62,434.33 528.85,610.74 104.45,89.38 88.53,162.71 16.02,261.65 -357.97,488.52 -750.76,945.42 -1210.93,1361.02l0 0zm-3922.45 -5370.37c912.31,-433.58 1732.65,-986.79 2310.92,-1836.53 568.34,-835.2 737.53,-1727.36 308.1,-2678.29 -287.01,-635.54 -769.59,-1101.71 -1345.9,-1474.74 -1086.8,-703.48 -2304.03,-1000.15 -3574.97,-1074.12 -1419.46,-82.59 -2806.25,110.8 -4133.86,644.55 -971.7,390.67 -1851.86,917.23 -2535.61,1731.74 -1115.94,1329.3 -982.18,2952.41 337.38,4080.46 621.76,531.55 1341.98,875.32 2119.31,1106.6 1218.31,362.46 2459.57,421.43 3716.97,275.99 964.05,-111.5 1889.29,-357.77 2797.66,-775.66l0 0zm3412.34 -10465.6c-572.93,285.8 -1113.01,621.87 -1631.95,1043.79 1321.7,664.31 2397.61,1583.7 3305.5,2760.96 157.28,-524.13 305.87,-994.4 438.97,-1469 176.75,-630.3 333.96,-1264.41 276.41,-1929.78 -50.83,-587.56 -457.09,-915.72 -1031.58,-844.67 -472.52,58.44 -904.55,230.98 -1357.35,438.7l0 0zm-13737.23 4497.4c582.66,-964.33 1331.19,-1783.79 2197.39,-2472.69 -16.82,-77.34 -51.57,-96.54 -85.98,-112.82 -623.85,-295.45 -1266.57,-532.65 -1959.96,-595.7 -548.5,-49.87 -885.68,178.55 -990.8,665.48 -25.39,117.53 -28.94,243.06 -22.15,363.76 46.16,818.98 386.29,1548.05 707.84,2282.33 4.08,9.33 20.83,13.09 32.83,20.14 64.25,-18.63 71.05,-85.39 120.83,-150.5l0 0zm-833.45 4271.39c-37.66,-18.48 -70.32,-62.74 -126.56,-18.35 -18.43,110.86 47.23,187.03 120.69,260.72 158.7,159.19 325.24,311.57 473.48,480.01 951.21,1080.8 1356.66,2321.95 1089.6,3757.18 -58.53,314.52 -181.03,611.18 -270.86,915.84 154.64,54.08 158.61,55.83 219.66,-83.41 281.92,-642.87 390.11,-1321.31 324.5,-2013.52 -127.91,-1349.53 -776.17,-2425.67 -1830.51,-3298.47z"/>
   </g>
   <path class="fil0" d="M12557.06 13897.43c-173.24,-83.56 -236.45,-210.95 -208.15,-383.46 24.27,-148.02 112.16,-239.52 257.03,-276.79 146.91,-37.81 267.16,10.72 357.49,124.95 97.55,123.37 100.84,263.66 22.2,395.09 -94.39,157.7 -239.98,200.2 -428.57,140.21z"/>
   <path class="fil0" d="M6745.04 16311.39c65.98,229.26 -4.76,398.38 -185.57,472.22 -167.83,68.55 -355.7,-2.33 -439.76,-165.94 -82.17,-159.88 -28.13,-354.78 125.64,-453.12 170.95,-109.32 339.86,-63.93 499.69,146.84z"/>
   <path class="fil0" d="M13792.4 12821.02c-48.51,178.1 -140.27,287.87 -322.4,297.99 -148.02,8.21 -265.1,-43.42 -337.83,-175.02 -72.51,-131.25 -57.94,-260.55 29.67,-379.54 96.34,-130.87 234.77,-154.58 379.86,-119.53 183.83,44.41 251.06,182.91 250.7,376.1z"/>
   <path class="fil0" d="M13089.92 15576.02c31.75,-183.52 122.63,-295.64 297.42,-321.34 155.15,-22.81 276.44,37.47 356.68,170.91 77.43,128.79 62.31,257.16 -21.55,377.63 -92.83,133.35 -229.02,159.93 -374.5,126.45 -173.27,-39.9 -244.12,-170.25 -258.05,-353.65z"/>
   <path class="fil0" d="M6037.72 13511.41c229.57,-76.17 433.92,98.81 458.16,274.6 24.01,174.17 -84.5,349.41 -257.92,395.97 -175.32,47.05 -364.44,-61.99 -421.83,-243.24 -52.03,-164.31 17.49,-306.07 221.59,-427.33z"/>
   <path class="fil0" d="M7026.12 14640.55c-213.95,-91.33 -310,-230.71 -282.98,-393.91 26.91,-162.66 166.59,-297.8 327.13,-300.6 171.24,-2.97 292.94,81.74 351.94,243.71 84.75,232.61 -94.82,444.8 -396.09,450.8z"/>
   <path class="fil0" d="M6910.24 15425.14c169.49,-88.86 313.99,-62.63 432.51,59.7 100.16,103.36 132.02,230.92 69.25,370.4 -60.53,134.48 -166.48,218.51 -311.11,217.67 -148.32,-0.89 -273.42,-70.91 -331.5,-217.85 -67.66,-171.17 -13.6,-311.25 140.85,-429.92z"/>
   <path class="fil0" d="M11585.86 14373.28c10.31,-180.02 88.85,-299.77 248.35,-344.45 129.37,-36.23 255.87,-14.18 355.25,89.41 145.23,151.4 129.04,371.72 -36.46,508.58 -156.41,129.33 -394.02,95.09 -505.3,-78.07 -30.17,-46.95 -41.36,-106.12 -61.84,-175.47z"/>
   <path class="fil0" d="M7878.94 14554.73c227.49,72 331.72,228.85 289.11,414.57 -40.31,175.66 -209.5,290.51 -390.56,265.12 -172.72,-24.2 -299.6,-173.68 -295.17,-347.72 5.44,-213.21 128.84,-320.78 396.62,-331.97z"/>
   <path class="fil0" d="M12351.22 15126.19c-19.03,-192.31 31.91,-339.9 212.81,-398.83 140.07,-45.63 282.58,-35.27 386.89,91.91 105.23,128.28 113.8,269.79 33.96,412.41 -65.66,117.29 -173.31,167.16 -306.54,160.01 -165.56,-8.85 -276.33,-90.04 -327.12,-265.5z"/>
  </g>
 </g>
</svg>
